_________________________  Visit us at _________________________
    
http://p2pdl.com  ____________________________  http://p2pdl.com

 
http://www.shotpix.com/images/94204031313772950690.jpg


Cheryl Cole - Ghetto Baby {M4A+MP4} (1080p) x264 [VX] [P2PDL]


                        1080p Full HD MP4 Video
                                  +
                        128 Kbps/VBR M4A Audio

General
Complete name                  : Cheryl Cole - Ghetto Baby (1080p) x264 [VX] [P2PDL].mp4
Format                         : MPEG-4
Format profile                 : Base Media / Version 2
Codec ID                       : mp42
File size                      : 31.8 MiB
Duration                       : 3mn 9s
Overall bit rate mode          : Variable
Overall bit rate               : 1 408 Kbps

Video
ID                             : 1
Format                         : AVC
Format/Info                    : Advanced Video Codec
Width                          : 1 920 pixels
Height                         : 1 080 pixels
Display aspect ratio           : 16:9
Frame rate mode                : Constant
Frame rate                     : 25.000 fps
Color space                    : YUV
Chroma subsampling             : 4:2:0
Bit depth                      : 8 bits
Scan type                      : Progressive
Bits/(Pixel*Frame)             : 0.025
Stream size                    : 28.9 MiB (91%)
Writing library                : x264 core 128

Audio
ID                             : 2
Format                         : AAC
Duration                       : 3mn 9s
Bit rate mode                  : Variable
Bit rate                       : 123 Kbps
Channel(s)                     : 2 channels
Channel positions              : Front: L R
Sampling rate                  : 44.1 KHz
Stream size                    : 2.78 MiB (9%)

Subtitles                      : No

Screens:
 
http://www.shotpix.com/images/99345084137041487150.jpg 
http://www.shotpix.com/images/64932698474368448985.jpg

Thumbs:
 
http://www.shotpix.com/images/83638994572683629278.jpg

------------------------------------------------------------------------

Notes:

* Recommended to use latest version VLC Media Player.
* Install shark007 codecs in case of any kind of problem in playback (For non-VLC Media Player users).
* Alternatively, install Core AVC codecs, the fastest decoder that there is coupled with Community Center Codec Pack and play on Windows Media Player Classic.

Greets to: VYTO, a2zRG, stumpie1971, Sheychi, staff members at ExtraTorrent, TPB,KAT, 1337x, PublicHD, Ahashare, TorrentMafia, Limetorrents, BTScene, P2PDL, and all others

Encoder Notes: Looking For Early Access To Anything You Can Provide DVDScr, R5, DVDRips, BluRay, Direct Audio, Early Music
Releases, Seedboxes, Links, Dedicated Servers anything u can provide, Advance / Promo CDs/DVDs. If You Got anything to
offer contact me at "prg@hush.com"

Facebook Fan Page: www . facebook . com / p2pdl